<svg xmlns="http://www.w3.org/2000/svg" xmlns:xlink="http://www.w3.org/1999/xlink" width="400" zoomAndPan="magnify" viewBox="0 0 300 74.999997" height="100" preserveAspectRatio="xMidYMid meet" version="1.0"><defs><g/><clipPath id="d27ad98bed"><path d="M 254 3.746094 L 292.738281 3.746094 L 292.738281 71 L 254 71 Z M 254 3.746094 " clip-rule="nonzero"/></clipPath><clipPath id="f123c35e50"><path d="M 252.238281 61 L 263 61 L 263 71.246094 L 252.238281 71.246094 Z M 252.238281 61 " clip-rule="nonzero"/></clipPath></defs><g clip-path="url(#d27ad98bed)"><path fill="#ffffff" d="M 260.664062 3.929688 C 259.878906 4.21875 259.429688 4.457031 259.242188 4.675781 C 258.964844 5.011719 258.246094 6.609375 258.152344 7.09375 C 258.101562 7.378906 258.09375 7.945312 258.128906 8.539062 C 258.171875 9.332031 258.222656 9.550781 258.363281 9.753906 C 258.484375 9.914062 258.566406 10.203125 258.601562 10.550781 C 258.644531 10.921875 258.726562 11.199219 258.90625 11.480469 C 259.277344 12.078125 259.320312 12.15625 259.632812 12.914062 L 259.929688 13.617188 L 259.386719 13.878906 C 259.089844 14.023438 258.625 14.320312 258.363281 14.53125 C 258.09375 14.75 257.695312 15.027344 257.484375 15.148438 C 256.953125 15.460938 256.597656 15.890625 256.234375 16.644531 C 255.972656 17.199219 255.9375 17.359375 255.9375 17.875 C 255.949219 18.375 256.007812 18.59375 256.300781 19.289062 L 256.648438 20.109375 L 256.640625 21.738281 C 256.632812 23.023438 256.597656 23.523438 256.472656 24.082031 C 256.320312 24.722656 256.300781 25.152344 256.300781 28.855469 C 256.300781 34.28125 256.328125 33.84375 255.90625 34.992188 C 255.703125 35.523438 255.40625 36.21875 255.246094 36.53125 L 254.949219 37.105469 L 255.179688 37.402344 C 255.355469 37.636719 255.414062 37.839844 255.484375 38.429688 C 255.523438 38.835938 255.601562 39.234375 255.644531 39.3125 C 255.683594 39.394531 255.921875 39.574219 256.175781 39.714844 C 256.511719 39.917969 256.734375 39.976562 257.0625 39.976562 C 257.417969 39.976562 257.492188 39.953125 257.492188 39.828125 C 257.492188 39.605469 257.324219 39.472656 257.0625 39.472656 C 256.929688 39.472656 256.714844 39.378906 256.589844 39.261719 L 256.351562 39.058594 L 256.859375 39.039062 C 257.140625 39.03125 257.410156 39.039062 257.453125 39.046875 C 257.847656 39.167969 258.070312 39.140625 258.121094 38.980469 C 258.152344 38.886719 258.28125 38.796875 258.421875 38.761719 C 258.769531 38.695312 258.769531 38.398438 258.433594 38.261719 C 258.261719 38.203125 258.171875 38.09375 258.136719 37.925781 C 258.050781 37.5 258.078125 37.453125 258.421875 37.351562 C 258.703125 37.265625 258.761719 37.207031 258.746094 37.070312 C 258.726562 36.976562 258.636719 36.851562 258.523438 36.800781 C 258.355469 36.714844 258.347656 36.691406 258.464844 36.597656 C 258.644531 36.453125 258.625 36.285156 258.421875 36.21875 C 258.289062 36.175781 258.253906 36.089844 258.253906 35.769531 C 258.253906 35.550781 258.195312 35.167969 258.136719 34.925781 C 258.042969 34.578125 258.035156 34.214844 258.085938 33.191406 C 258.160156 31.914062 258.324219 31.070312 258.667969 30.132812 C 258.898438 29.53125 259.488281 26.84375 259.640625 25.738281 C 259.765625 24.839844 259.902344 24.292969 260.03125 24.148438 C 260.121094 24.039062 260.613281 25.128906 260.796875 25.855469 C 260.890625 26.210938 261 26.859375 261.042969 27.308594 C 261.085938 27.75 261.171875 28.230469 261.222656 28.367188 C 261.339844 28.652344 261.457031 30.394531 261.5 32.640625 C 261.515625 33.589844 261.578125 34.339844 261.636719 34.535156 C 261.738281 34.824219 261.726562 34.863281 261.59375 34.949219 C 261.210938 35.160156 261.113281 35.339844 261.160156 35.660156 C 261.203125 35.929688 261.179688 35.980469 260.960938 36.105469 C 260.65625 36.285156 260.648438 36.378906 260.917969 36.886719 L 261.128906 37.28125 L 260.78125 37.746094 C 260.394531 38.253906 260.265625 38.820312 260.445312 39.167969 C 260.527344 39.320312 260.511719 39.429688 260.359375 39.816406 C 260.257812 40.0625 260.070312 40.613281 259.945312 41.035156 C 259.808594 41.449219 259.605469 42.039062 259.480469 42.335938 C 259.234375 42.917969 259.234375 43.199219 259.480469 43.925781 C 259.546875 44.128906 259.640625 44.863281 259.691406 45.574219 C 259.859375 47.949219 259.867188 48.015625 260.207031 48.566406 C 260.375 48.835938 260.808594 49.707031 261.160156 50.484375 C 261.515625 51.269531 261.941406 52.113281 262.101562 52.359375 C 262.507812 52.96875 264.964844 55.386719 265.894531 56.097656 C 266.589844 56.621094 266.679688 56.730469 267.027344 57.390625 C 267.238281 57.785156 267.492188 58.234375 267.601562 58.394531 C 267.78125 58.65625 267.789062 58.691406 267.660156 58.886719 C 267.550781 59.054688 267.542969 59.136719 267.636719 59.46875 C 267.738281 59.824219 267.730469 59.855469 267.542969 60.066406 C 267.390625 60.238281 267.375 60.28125 267.492188 60.238281 C 267.585938 60.203125 267.636719 60.230469 267.636719 60.296875 C 267.636719 60.355469 267.730469 60.507812 267.847656 60.632812 C 267.984375 60.777344 268.058594 60.964844 268.058594 61.132812 C 268.058594 61.410156 268.117188 61.65625 268.347656 62.25 L 268.472656 62.585938 L 268.480469 62.128906 C 268.480469 61.859375 268.515625 61.699219 268.558594 61.75 C 268.648438 61.851562 268.929688 62.824219 269.113281 63.6875 C 269.46875 65.332031 270.214844 66.433594 270.984375 66.433594 C 271.253906 66.433594 271.855469 66.085938 272.191406 65.722656 C 272.308594 65.605469 272.46875 65.503906 272.5625 65.503906 C 272.699219 65.503906 272.722656 65.460938 272.671875 65.242188 C 272.613281 64.945312 272.742188 64.65625 272.917969 64.65625 C 273.078125 64.65625 273.085938 64.292969 272.933594 64.167969 C 272.875 64.117188 272.824219 63.878906 272.808594 63.636719 C 272.800781 63.332031 272.691406 62.949219 272.410156 62.339844 C 271.964844 61.328125 271.804688 60.8125 271.726562 60.167969 C 271.675781 59.730469 271.683594 59.6875 271.855469 59.628906 C 272.066406 59.5625 272.097656 59.214844 271.90625 59.027344 C 271.71875 58.84375 271.742188 58.429688 271.945312 58.320312 C 272.15625 58.207031 272.15625 58.046875 271.953125 57.863281 C 271.871094 57.777344 271.769531 57.59375 271.742188 57.429688 C 271.632812 56.882812 271.007812 56.347656 269.984375 55.960938 C 269.417969 55.742188 269.394531 55.714844 269.125 55.183594 C 268.972656 54.886719 268.4375 53.871094 267.941406 52.925781 C 267.296875 51.71875 266.976562 51.015625 266.859375 50.558594 C 266.664062 49.800781 266.207031 48.886719 265.472656 47.78125 C 265.175781 47.347656 264.972656 46.992188 265.007812 46.992188 C 265.050781 46.992188 265.125 47.050781 265.195312 47.128906 C 265.378906 47.347656 266.140625 47.695312 266.46875 47.703125 C 266.714844 47.703125 266.851562 47.652344 267.019531 47.484375 L 267.246094 47.253906 L 267.09375 46.671875 C 266.953125 46.121094 266.953125 46.070312 267.105469 45.523438 C 267.230469 45.03125 267.289062 44.929688 267.507812 44.839844 C 267.644531 44.777344 268.152344 44.363281 268.625 43.917969 C 269.453125 43.148438 269.496094 43.113281 269.742188 43.199219 C 269.960938 43.273438 271.515625 44.796875 272.800781 46.183594 C 273.054688 46.453125 273.492188 46.867188 273.789062 47.101562 C 274.085938 47.332031 274.449219 47.703125 274.59375 47.921875 C 275.125 48.691406 275.539062 49.183594 275.683594 49.191406 C 275.765625 49.191406 275.925781 49.386719 276.089844 49.6875 C 276.230469 49.960938 276.652344 50.558594 277.035156 51.015625 C 277.8125 51.980469 278.226562 52.570312 278.625 53.289062 C 278.777344 53.570312 279.054688 53.984375 279.25 54.21875 C 279.441406 54.449219 279.644531 54.742188 279.695312 54.871094 C 279.757812 54.996094 280 55.226562 280.246094 55.394531 C 281.007812 55.894531 281.453125 56.367188 281.648438 56.90625 C 281.945312 57.691406 282.222656 58.199219 283.136719 59.585938 C 283.617188 60.304688 284.3125 61.371094 284.691406 61.945312 C 285.425781 63.058594 285.597656 63.472656 285.722656 64.472656 C 285.808594 65.140625 286.070312 65.832031 286.324219 66.058594 C 286.40625 66.136719 286.507812 66.339844 286.535156 66.507812 C 286.566406 66.675781 286.746094 67.101562 286.929688 67.445312 C 287.640625 68.765625 287.921875 69.355469 287.980469 69.679688 C 288.082031 70.3125 288.113281 70.320312 290.101562 70.320312 C 291.066406 70.320312 291.996094 70.292969 292.171875 70.269531 C 292.46875 70.21875 292.484375 70.195312 292.484375 69.90625 C 292.484375 69.515625 292.246094 69.027344 291.445312 67.683594 C 291.082031 67.101562 290.792969 66.59375 290.792969 66.558594 C 290.792969 66.535156 290.871094 66.550781 290.953125 66.601562 C 291.046875 66.644531 291.183594 66.660156 291.257812 66.636719 C 291.445312 66.558594 291.277344 66.382812 290.964844 66.3125 C 290.785156 66.28125 290.648438 66.171875 290.53125 65.96875 C 290.429688 65.808594 290.320312 65.671875 290.277344 65.671875 C 290.101562 65.671875 289.339844 64.859375 289.179688 64.496094 C 289.085938 64.292969 288.917969 63.988281 288.800781 63.828125 C 288.410156 63.320312 288.003906 62.191406 288.003906 61.605469 C 288.003906 60.988281 287.589844 59.453125 286.992188 57.84375 C 286.382812 56.230469 286.113281 55.664062 285.503906 54.753906 C 285.207031 54.304688 284.894531 53.773438 284.800781 53.570312 C 284.707031 53.347656 284.464844 53.042969 284.175781 52.800781 C 283.914062 52.578125 283.675781 52.328125 283.652344 52.234375 C 283.625 52.148438 283.527344 52.046875 283.441406 52.023438 C 283.152344 51.929688 281.859375 49.570312 281.617188 48.699219 C 281.453125 48.117188 281.496094 47.921875 281.785156 47.921875 C 282.292969 47.921875 284.03125 47.238281 284.03125 47.035156 C 284.03125 46.800781 283.535156 45.71875 283.246094 45.328125 C 283.085938 45.101562 282.722656 44.441406 282.445312 43.859375 C 282.171875 43.273438 281.71875 42.464844 281.4375 42.039062 C 281.160156 41.625 280.828125 41.09375 280.703125 40.847656 C 280.40625 40.316406 280.152344 40.054688 279.5625 39.742188 L 279.105469 39.488281 L 279.097656 38.894531 C 279.089844 38.390625 279.054688 38.261719 278.886719 38.085938 C 278.582031 37.765625 278.191406 37.664062 277.847656 37.804688 L 277.558594 37.925781 L 277.449219 37.28125 C 277.390625 36.925781 277.332031 36.445312 277.320312 36.21875 C 277.261719 35.007812 276.484375 32.3125 275.816406 30.984375 C 275.722656 30.800781 275.503906 30.25 275.328125 29.761719 C 275.148438 29.269531 274.929688 28.652344 274.835938 28.398438 C 274.464844 27.367188 274.152344 26.210938 274.109375 25.652344 C 274.078125 25.324219 273.957031 24.664062 273.847656 24.171875 C 273.621094 23.234375 273.308594 21.613281 273.300781 21.359375 C 273.300781 21.222656 273.316406 21.222656 273.621094 21.375 C 274.058594 21.605469 275.191406 21.949219 275.707031 22.019531 C 275.945312 22.050781 276.390625 22.171875 276.714844 22.28125 C 277.769531 22.644531 278.800781 22.507812 278.9375 21.984375 C 279.011719 21.671875 278.894531 20.566406 278.75 20.285156 C 278.554688 19.90625 277.8125 18.941406 277.566406 18.746094 C 277.449219 18.65625 277.261719 18.402344 277.152344 18.179688 C 276.875 17.648438 276.15625 16.972656 275.082031 16.269531 C 274.753906 16.050781 274.480469 15.816406 274.480469 15.746094 C 274.480469 15.585938 273.476562 14.539062 272.859375 14.058594 C 272.589844 13.855469 272.371094 13.640625 272.371094 13.59375 C 272.371094 13.457031 271.617188 12.664062 271.328125 12.492188 C 271.203125 12.417969 270.855469 12.332031 270.570312 12.296875 C 270.28125 12.265625 269.859375 12.15625 269.621094 12.054688 C 269.257812 11.894531 269.074219 11.867188 268.355469 11.894531 C 267.890625 11.910156 267.398438 11.953125 267.253906 11.996094 C 267.078125 12.046875 266.925781 12.027344 266.757812 11.945312 C 266.628906 11.875 266.453125 11.832031 266.367188 11.859375 C 265.910156 11.976562 265.429688 10.609375 265.691406 9.933594 C 265.878906 9.449219 265.945312 8.570312 265.878906 7.691406 C 265.8125 6.914062 265.761719 6.710938 265.464844 6.085938 C 265.074219 5.25 264.730469 4.828125 264.136719 4.445312 C 263.351562 3.949219 262.84375 3.78125 262.015625 3.746094 C 261.363281 3.71875 261.171875 3.746094 260.664062 3.929688 Z M 260.664062 3.929688 " fill-opacity="1" fill-rule="nonzero"/></g><g clip-path="url(#f123c35e50)"><path fill="#ffffff" d="M 256.4375 61.53125 C 254.585938 61.859375 253.191406 63.101562 252.542969 64.996094 C 252.304688 65.671875 252.328125 67.039062 252.582031 67.785156 C 253.125 69.355469 254.207031 70.421875 255.804688 70.960938 C 256.511719 71.207031 257.859375 71.183594 258.660156 70.921875 C 260.359375 70.363281 261.535156 69.019531 261.90625 67.210938 C 262.132812 66.09375 262.015625 65.265625 261.476562 64.152344 C 261.121094 63.398438 260.242188 62.46875 259.539062 62.097656 C 258.660156 61.625 257.324219 61.378906 256.4375 61.53125 Z M 256.4375 61.53125 " fill-opacity="1" fill-rule="nonzero"/></g><path stroke-linecap="butt" transform="matrix(0.612146, 0, 0, 0.612146, 6.495936, 15.842525)" fill="none" stroke-linejoin="miter" d="M 21.715615 86.997439 L 21.715615 66.028687 L 36.622191 66.028687 C 49.263426 66.028687 56.289171 57.528876 56.289171 47.35718 C 56.289171 37.070622 49.346382 28.487855 36.622191 28.487855 L 9.253055 28.487855 L 9.253055 86.997439 Z M 43.564979 47.267842 C 43.564979 52.175016 39.883004 55.320967 34.956687 55.320967 L 21.715615 55.320967 L 21.715615 39.195575 L 34.956687 39.195575 C 39.883004 39.195575 43.564979 42.430863 43.564979 47.267842 Z M 69.255849 38.404301 C 72.944206 38.404301 75.917863 35.424262 75.917863 31.742287 C 75.917863 28.034787 72.944206 25.054748 69.255849 25.054748 C 65.65683 25.054748 62.593835 28.034787 62.593835 31.742287 C 62.593835 35.424262 65.65683 38.404301 69.255849 38.404301 Z M 74.87134 86.997439 L 74.87134 44.632391 L 63.729696 44.632391 L 63.729696 86.997439 Z M 100.14743 88.050344 C 104.792972 88.050344 107.773011 86.831527 109.438514 85.331936 L 107.064693 76.915081 C 106.464857 77.534061 104.882309 78.133898 103.210425 78.133898 C 100.747266 78.133898 99.356156 76.117426 99.356156 73.481974 L 99.356156 54.3574 L 107.945304 54.3574 L 107.945304 44.632391 L 99.356156 44.632391 L 99.356156 33.04406 L 88.106031 33.04406 L 88.106031 44.632391 L 81.105811 44.632391 L 81.105811 54.3574 L 88.106031 54.3574 L 88.106031 76.462013 C 88.106031 84.023782 92.330411 88.050344 100.14743 88.050344 Z M 112.852477 65.773437 C 112.852477 78.842215 122.232899 88.050344 135.320822 88.050344 C 143.992926 88.050344 149.26383 84.279031 152.071575 80.341807 L 144.790581 73.571312 C 142.774109 76.379057 139.691971 78.133898 135.837702 78.133898 C 129.086351 78.133898 124.351471 73.143769 124.351471 65.773437 C 124.351471 58.409487 129.086351 53.48317 135.837702 53.48317 C 139.691971 53.48317 142.774109 55.148673 144.790581 58.039375 L 152.071575 51.294405 C 149.26383 47.35718 143.992926 43.560342 135.320822 43.560342 C 122.232899 43.560342 112.852477 52.793996 112.852477 65.773437 Z M 199.184266 86.997439 L 199.184266 56.909895 C 199.184266 48.658953 194.704636 43.560342 185.413551 43.560342 C 178.470763 43.560342 173.199859 46.904112 170.481451 50.158544 L 170.481451 28.487855 L 159.346188 28.487855 L 159.346188 86.997439 L 170.481451 86.997439 L 170.481451 58.492443 C 172.408585 55.946328 175.835311 53.48317 180.142648 53.48317 C 184.960483 53.48317 188.023478 55.320967 188.023478 61.210851 L 188.023478 86.997439 Z M 199.184266 86.997439 " stroke="#ffffff" stroke-width="5.483263" stroke-opacity="1" stroke-miterlimit="4"/><path stroke-linecap="butt" transform="matrix(0.612146, 0, 0, 0.612146, 6.495936, 15.842525)" fill="none" stroke-linejoin="miter" d="M 268.484527 86.997439 L 285.152324 28.487855 L 271.119979 28.487855 L 260.948283 70.763566 L 249.876833 28.487855 L 240.151824 28.487855 L 229.01018 70.763566 L 218.730003 28.487855 L 204.786994 28.487855 L 221.537748 86.997439 L 234.797964 86.997439 L 244.969659 46.821156 L 255.230692 86.997439 Z M 296.281206 38.404301 C 299.963181 38.404301 302.94322 35.424262 302.94322 31.742287 C 302.94322 28.034787 299.963181 25.054748 296.281206 25.054748 C 292.682187 25.054748 289.619192 28.034787 289.619192 31.742287 C 289.619192 35.424262 292.682187 38.404301 296.281206 38.404301 Z M 301.890316 86.997439 L 301.890316 44.632391 L 290.755053 44.632391 L 290.755053 86.997439 Z M 345.672 86.997439 L 345.672 77.253287 L 325.928445 77.253287 L 345.308269 52.685515 L 345.308269 44.632391 L 311.104825 44.632391 L 311.104825 54.3574 L 330.2294 54.3574 L 311.104825 78.669922 L 311.104825 86.997439 Z M 352.244676 65.773437 C 352.244676 79.371858 361.988829 88.050344 374.885314 88.050344 C 381.45799 88.050344 388.037048 86.12321 392.338004 82.179604 L 387.437212 74.981565 C 384.712423 77.617017 380.06688 79.180421 376.104131 79.180421 C 368.906092 79.180421 364.624281 74.726316 363.915963 69.372456 L 395.400999 69.372456 L 395.400999 66.909298 C 395.400999 53.049245 386.81185 43.560342 374.176996 43.560342 C 361.280511 43.560342 352.244676 53.48317 352.244676 65.773437 Z M 374.176996 52.430265 C 381.547328 52.430265 384.348692 57.784125 384.610323 61.810687 L 363.74367 61.810687 C 364.26055 57.611832 367.240589 52.430265 374.176996 52.430265 Z M 374.176996 52.430265 " stroke="#ffffff" stroke-width="5.483263" stroke-opacity="1" stroke-miterlimit="4"/><g fill="#ffffff" fill-opacity="1"><g transform="translate(8.619318, 69.099224)"><g><path d="M 11.171875 0 L 11.171875 -12.835938 L 20.300781 -12.835938 C 28.035156 -12.835938 32.328125 -18.042969 32.328125 -24.273438 C 32.328125 -30.558594 28.085938 -35.820312 20.300781 -35.820312 L 3.542969 -35.820312 L 3.542969 0 Z M 24.542969 -24.328125 C 24.542969 -21.320312 22.285156 -19.386719 19.28125 -19.386719 L 11.171875 -19.386719 L 11.171875 -29.269531 L 19.28125 -29.269531 C 22.285156 -29.269531 24.542969 -27.28125 24.542969 -24.328125 Z M 24.542969 -24.328125 "/></g></g></g><g fill="#ffffff" fill-opacity="1"><g transform="translate(42.126034, 69.099224)"><g><path d="M 6.765625 -29.75 C 9.023438 -29.75 10.847656 -31.578125 10.847656 -33.832031 C 10.847656 -36.089844 9.023438 -37.914062 6.765625 -37.914062 C 4.566406 -37.914062 2.683594 -36.089844 2.683594 -33.832031 C 2.683594 -31.578125 4.566406 -29.75 6.765625 -29.75 Z M 10.203125 0 L 10.203125 -25.9375 L 3.382812 -25.9375 L 3.382812 0 Z M 10.203125 0 "/></g></g></g><g fill="#ffffff" fill-opacity="1"><g transform="translate(55.711292, 69.099224)"><g><path d="M 12.082031 0.644531 C 14.929688 0.644531 16.753906 -0.105469 17.777344 -1.019531 L 16.324219 -6.175781 C 15.949219 -5.800781 14.984375 -5.425781 13.964844 -5.425781 C 12.460938 -5.425781 11.601562 -6.660156 11.601562 -8.269531 L 11.601562 -19.976562 L 16.863281 -19.976562 L 16.863281 -25.9375 L 11.601562 -25.9375 L 11.601562 -33.027344 L 4.726562 -33.027344 L 4.726562 -25.9375 L 0.429688 -25.9375 L 0.429688 -19.976562 L 4.726562 -19.976562 L 4.726562 -6.445312 C 4.726562 -1.824219 7.304688 0.644531 12.082031 0.644531 Z M 12.082031 0.644531 "/></g></g></g><g fill="#ffffff" fill-opacity="1"><g transform="translate(73.860762, 69.099224)"><g><path d="M 1.71875 -12.996094 C 1.71875 -4.996094 7.464844 0.644531 15.464844 0.644531 C 20.785156 0.644531 24.003906 -1.664062 25.722656 -4.082031 L 21.265625 -8.214844 C 20.03125 -6.5 18.152344 -5.425781 15.789062 -5.425781 C 11.652344 -5.425781 8.753906 -8.484375 8.753906 -12.996094 C 8.753906 -17.507812 11.652344 -20.515625 15.789062 -20.515625 C 18.152344 -20.515625 20.03125 -19.496094 21.265625 -17.722656 L 25.722656 -21.855469 C 24.003906 -24.273438 20.785156 -26.582031 15.464844 -26.582031 C 7.464844 -26.582031 1.71875 -20.945312 1.71875 -12.996094 Z M 1.71875 -12.996094 "/></g></g></g><g fill="#ffffff" fill-opacity="1"><g transform="translate(100.655393, 69.099224)"><g><path d="M 27.765625 0 L 27.765625 -18.421875 C 27.765625 -23.46875 25.027344 -26.582031 19.332031 -26.582031 C 15.089844 -26.582031 11.867188 -24.542969 10.203125 -22.554688 L 10.203125 -35.820312 L 3.382812 -35.820312 L 3.382812 0 L 10.203125 0 L 10.203125 -17.453125 C 11.386719 -19.011719 13.480469 -20.515625 16.109375 -20.515625 C 19.066406 -20.515625 20.945312 -19.386719 20.945312 -15.789062 L 20.945312 0 Z M 27.765625 0 "/></g></g></g><g fill="#5a189a" fill-opacity="1"><g transform="translate(131.804131, 69.099224)"><g><path d="M 39.042969 0 L 49.246094 -35.820312 L 40.652344 -35.820312 L 34.425781 -9.933594 L 27.65625 -35.820312 L 21.695312 -35.820312 L 14.875 -9.933594 L 8.59375 -35.820312 L 0.0546875 -35.820312 L 10.3125 0 L 18.421875 0 L 24.648438 -24.597656 L 30.933594 0 Z M 39.042969 0 "/></g></g></g><g fill="#5a189a" fill-opacity="1"><g transform="translate(181.097667, 69.099224)"><g><path d="M 6.765625 -29.75 C 9.023438 -29.75 10.847656 -31.578125 10.847656 -33.832031 C 10.847656 -36.089844 9.023438 -37.914062 6.765625 -37.914062 C 4.566406 -37.914062 2.683594 -36.089844 2.683594 -33.832031 C 2.683594 -31.578125 4.566406 -29.75 6.765625 -29.75 Z M 10.203125 0 L 10.203125 -25.9375 L 3.382812 -25.9375 L 3.382812 0 Z M 10.203125 0 "/></g></g></g><g fill="#5a189a" fill-opacity="1"><g transform="translate(194.682925, 69.099224)"><g><path d="M 23.414062 0 L 23.414062 -5.960938 L 11.332031 -5.960938 L 23.199219 -21 L 23.199219 -25.9375 L 2.253906 -25.9375 L 2.253906 -19.976562 L 13.964844 -19.976562 L 2.253906 -5.101562 L 2.253906 0 Z M 23.414062 0 "/></g></g></g><g fill="#5a189a" fill-opacity="1"><g transform="translate(220.403629, 69.099224)"><g><path d="M 1.71875 -12.996094 C 1.71875 -4.671875 7.679688 0.644531 15.574219 0.644531 C 19.601562 0.644531 23.628906 -0.535156 26.261719 -2.953125 L 23.253906 -7.355469 C 21.589844 -5.746094 18.742188 -4.78125 16.324219 -4.78125 C 11.921875 -4.78125 9.289062 -7.519531 8.859375 -10.792969 L 28.140625 -10.792969 L 28.140625 -12.296875 C 28.140625 -20.785156 22.878906 -26.582031 15.144531 -26.582031 C 7.25 -26.582031 1.71875 -20.515625 1.71875 -12.996094 Z M 15.144531 -21.160156 C 19.65625 -21.160156 21.375 -17.882812 21.535156 -15.414062 L 8.753906 -15.414062 C 9.074219 -17.992188 10.902344 -21.160156 15.144531 -21.160156 Z M 15.144531 -21.160156 "/></g></g></g></svg>